<svg width="24" height="24" viewBox="0 0 24 24" fill="none" xmlns="http://www.w3.org/2000/svg">
<path d="M7.83333 15.75C7.83333 16.1396 8.15208 16.4583 8.54167 16.4583H9.25V18.9375C9.25 19.5254 9.72458 20 10.3125 20C10.9004 20 11.375 19.5254 11.375 18.9375V16.4583H12.7917V18.9375C12.7917 19.5254 13.2662 20 13.8542 20C14.4421 20 14.9167 19.5254 14.9167 18.9375V16.4583H15.625C16.0146 16.4583 16.3333 16.1396 16.3333 15.75V8.66667H7.83333V15.75ZM6.0625 8.66667C5.47458 8.66667 5 9.14125 5 9.72917V14.6875C5 15.2754 5.47458 15.75 6.0625 15.75C6.65042 15.75 7.125 15.2754 7.125 14.6875V9.72917C7.125 9.14125 6.65042 8.66667 6.0625 8.66667ZM18.1042 8.66667C17.5162 8.66667 17.0417 9.14125 17.0417 9.72917V14.6875C17.0417 15.2754 17.5162 15.75 18.1042 15.75C18.6921 15.75 19.1667 15.2754 19.1667 14.6875V9.72917C19.1667 9.14125 18.6921 8.66667 18.1042 8.66667ZM14.5837 4.53L15.5046 3.60917C15.6462 3.4675 15.6462 3.24792 15.5046 3.10625C15.3629 2.96458 15.1433 2.96458 15.0017 3.10625L13.9533 4.15458C13.3937 3.87125 12.7562 3.70833 12.0833 3.70833C11.4033 3.70833 10.7658 3.87125 10.1992 4.15458L9.14375 3.10625C9.00208 2.96458 8.7825 2.96458 8.64083 3.10625C8.49917 3.24792 8.49917 3.4675 8.64083 3.60917L9.56875 4.53708C8.52042 5.30917 7.83333 6.54875 7.83333 7.95833H16.3333C16.3333 6.54875 15.6462 5.30208 14.5837 4.53ZM10.6667 6.54167H9.95833V5.83333H10.6667V6.54167ZM14.2083 6.54167H13.5V5.83333H14.2083V6.54167Z" fill="#0B0C0D" fill-opacity="0.76"/>
</svg>
