<svg width="24" height="24" viewBox="0 0 24 24" fill="none" xmlns="http://www.w3.org/2000/svg">
<path fill-rule="evenodd" clip-rule="evenodd" d="M18.9394 12.2525C18.9394 12.5706 18.9201 12.8693 18.8816 13.1585L20.8188 14.6813C21.0019 14.8162 21.0501 15.0572 20.9345 15.2692L19.084 18.4691C18.9683 18.6811 18.7274 18.7582 18.5153 18.6811L16.2118 17.7558C15.7396 18.1221 15.2191 18.4305 14.6505 18.6618L14.3035 21.1099C14.2746 21.3412 14.0818 21.505 13.8505 21.505H10.1495C9.91818 21.505 9.73506 21.3412 9.68687 21.1099L9.3399 18.6618C8.77126 18.4305 8.26044 18.1221 7.77854 17.7558L5.47505 18.6811C5.26301 18.7486 5.02206 18.6811 4.9064 18.4691L3.0559 15.2692C2.94988 15.0765 2.99807 14.8162 3.17156 14.6813L5.12808 13.1585C5.07989 12.8693 5.06061 12.5513 5.06061 12.2525C5.06061 11.9537 5.09916 11.6357 5.14736 11.3465L3.19083 9.82373C2.99807 9.6888 2.95952 9.43821 3.07518 9.23581L4.91604 6.03598C5.0317 5.82395 5.27265 5.74684 5.48469 5.82394L7.78818 6.7492C8.26044 6.39259 8.7809 6.07453 9.34954 5.84322L9.69651 3.39516C9.73506 3.16385 9.91818 3 10.1495 3H13.8505C14.0818 3 14.2746 3.16385 14.3131 3.39516L14.6601 5.84322C15.2287 6.07453 15.7396 6.38295 16.2215 6.7492L18.525 5.82394C18.737 5.75648 18.9779 5.82395 19.0936 6.03598L20.9441 9.23581C21.0501 9.42857 21.0019 9.6888 20.8284 9.82373L18.8719 11.3465C18.9201 11.6357 18.9394 11.9441 18.9394 12.2525ZM7.39302 12.2525C7.39302 14.1608 8.80981 17.1679 12.212 17.1679C13.3002 17.1679 14.3256 16.5737 15.129 15.746L13.0159 14.2692C12.8434 14.3262 12.6709 14.3552 12.5004 14.3839C11.1119 14.6174 9.84274 13.7226 9.61141 12.347C9.58212 12.1728 9.57078 11.9943 9.57796 11.8174L9.60983 11.0176L11.0236 12.0857L12.084 11.9074L11.9056 10.8467L10.4324 9.85429L11.1803 9.5647C11.3365 9.50406 11.5008 9.45903 11.6675 9.43099C13.0333 9.20133 14.3325 10.136 14.5643 11.5141C14.5934 11.6875 14.6019 11.8664 14.5903 12.0551L16.5696 13.4378C16.7124 13.0217 16.7901 12.6171 16.7901 12.2525C16.7901 9.82373 14.1204 7.52988 12.212 7.52988C8.80981 7.52988 7.39302 10.3442 7.39302 12.2525Z" fill="#0B0C0D" fill-opacity="0.76"/>
</svg>
