<svg width="24" height="24" viewBox="0 0 24 24" fill="none" xmlns="http://www.w3.org/2000/svg">
<path d="M4 21C3.71667 21 3.47933 20.904 3.288 20.712C3.096 20.5207 3 20.2833 3 20C3 19.7167 3.096 19.4793 3.288 19.288C3.47933 19.096 3.71667 19 4 19H20C20.2833 19 20.5207 19.096 20.712 19.288C20.904 19.4793 21 19.7167 21 20C21 20.2833 20.904 20.5207 20.712 20.712C20.5207 20.904 20.2833 21 20 21H4ZM8 17C7.71667 17 7.479 16.904 7.287 16.712C7.09567 16.5207 7 16.2833 7 16C7 15.7167 7.09567 15.479 7.287 15.287C7.479 15.0957 7.71667 15 8 15H16C16.2833 15 16.5207 15.0957 16.712 15.287C16.904 15.479 17 15.7167 17 16C17 16.2833 16.904 16.5207 16.712 16.712C16.5207 16.904 16.2833 17 16 17H8ZM4 13C3.71667 13 3.47933 12.904 3.288 12.712C3.096 12.5207 3 12.2833 3 12C3 11.7167 3.096 11.479 3.288 11.287C3.47933 11.0957 3.71667 11 4 11H20C20.2833 11 20.5207 11.0957 20.712 11.287C20.904 11.479 21 11.7167 21 12C21 12.2833 20.904 12.5207 20.712 12.712C20.5207 12.904 20.2833 13 20 13H4ZM8 9C7.71667 9 7.479 8.904 7.287 8.712C7.09567 8.52067 7 8.28333 7 8C7 7.71667 7.09567 7.479 7.287 7.287C7.479 7.09567 7.71667 7 8 7H16C16.2833 7 16.5207 7.09567 16.712 7.287C16.904 7.479 17 7.71667 17 8C17 8.28333 16.904 8.52067 16.712 8.712C16.5207 8.904 16.2833 9 16 9H8ZM4 5C3.71667 5 3.47933 4.904 3.288 4.712C3.096 4.52067 3 4.28333 3 4C3 3.71667 3.096 3.479 3.288 3.287C3.47933 3.09567 3.71667 3 4 3H20C20.2833 3 20.5207 3.09567 20.712 3.287C20.904 3.479 21 3.71667 21 4C21 4.28333 20.904 4.52067 20.712 4.712C20.5207 4.904 20.2833 5 20 5H4Z" fill="#0B0C0D" fill-opacity="0.76"/>
</svg>
