<svg width="24" height="24" viewBox="0 0 24 24" fill="none" xmlns="http://www.w3.org/2000/svg">
<path d="M20 10.6C20 9.5 19.1 8.7 18.1 8.7C17.6 8.7 17.2 8.9 16.9 9.1C15.7 8.4 14.2 7.9 12.6 7.8L13.4 5.2L15.7 5.7C15.8 6.5 16.5 7.2 17.3 7.2C18.2 7.2 18.9 6.5 18.9 5.6C18.9 4.7 18.2 4 17.3 4C16.7 4 16.1 4.4 15.9 4.9L13.2 4.2C13 4.2 12.8 4.3 12.7 4.5L11.7 7.8C10 7.8 8.4 8.3 7.1 9C6.8 8.8 6.4 8.6 5.9 8.6C4.9 8.6 4 9.5 4 10.6C4 11.3 4.3 11.8 4.8 12.2C4.8 12.4 4.8 12.5 4.8 12.7C4.8 14 5.6 15.3 7 16.2C8.3 17.1 10.1 17.6 12 17.6C13.9 17.6 15.7 17.1 17 16.2C18.4 15.3 19.2 14.1 19.2 12.7C19.2 12.6 19.2 12.4 19.2 12.3C19.6 11.8 20 11.2 20 10.6ZM8.5 11.7C8.5 11.1 9 10.6 9.6 10.6C10.2 10.6 10.7 11.1 10.7 11.7C10.7 12.3 10.2 12.8 9.6 12.8C9 12.8 8.5 12.3 8.5 11.7ZM14.6 14.9C14 15.5 13.2 15.7 12 15.7C10.8 15.7 9.9 15.4 9.4 14.9C9.2 14.7 9.2 14.5 9.4 14.3C9.6 14.1 9.8 14.1 10 14.3C10.4 14.7 11 14.9 12 14.9C13 14.9 13.6 14.7 14 14.3C14.2 14.1 14.4 14.1 14.6 14.3C14.8 14.5 14.8 14.8 14.6 14.9ZM14.4 12.8C13.8 12.8 13.3 12.3 13.3 11.7C13.3 11.1 13.8 10.6 14.4 10.6C15 10.6 15.5 11.1 15.5 11.7C15.5 12.3 15 12.8 14.4 12.8Z" fill="#0B0C0D" fill-opacity="0.76"/>
</svg>
