<svg width="24" height="24" viewBox="0 0 24 24" fill="none" xmlns="http://www.w3.org/2000/svg">
<path d="M3 14C2.71667 14 2.47933 13.904 2.288 13.712C2.096 13.5207 2 13.2833 2 13C2 12.7167 2.096 12.479 2.288 12.287C2.47933 12.0957 2.71667 12 3 12H21C21.2833 12 21.5207 12.0957 21.712 12.287C21.904 12.479 22 12.7167 22 13C22 13.2833 21.904 13.5207 21.712 13.712C21.5207 13.904 21.2833 14 21 14H3ZM10.5 10V7H6.5C6.08333 7 5.72933 6.854 5.438 6.562C5.146 6.27067 5 5.91667 5 5.5C5 5.08333 5.146 4.72933 5.438 4.438C5.72933 4.146 6.08333 4 6.5 4H17.5C17.9167 4 18.2707 4.146 18.562 4.438C18.854 4.72933 19 5.08333 19 5.5C19 5.91667 18.854 6.27067 18.562 6.562C18.2707 6.854 17.9167 7 17.5 7H13.5V10H10.5ZM12 20C11.5833 20 11.2293 19.854 10.938 19.562C10.646 19.2707 10.5 18.9167 10.5 18.5V16H13.5V18.5C13.5 18.9167 13.354 19.2707 13.062 19.562C12.7707 19.854 12.4167 20 12 20Z" fill="#0B0C0D" fill-opacity="0.76"/>
</svg>
