<svg width="24" height="24" viewBox="0 0 24 24" fill="none" xmlns="http://www.w3.org/2000/svg">
<path d="M20.1002 20.9L17.7752 18.575C17.5419 18.7083 17.3085 18.8373 17.0752 18.962C16.8419 19.0873 16.6002 19.2 16.3502 19.3C16.0169 19.4333 15.7085 19.3916 15.4252 19.175C15.1419 18.9583 15.0002 18.6583 15.0002 18.275C15.0002 18.0916 15.0545 17.9293 15.1632 17.788C15.2712 17.646 15.4085 17.5416 15.5752 17.475C15.7085 17.425 15.8379 17.3706 15.9632 17.312C16.0879 17.254 16.2085 17.1916 16.3252 17.125L13.0002 13.8V16.575C13.0002 17.025 12.7959 17.3373 12.3872 17.512C11.9792 17.6873 11.6169 17.6166 11.3002 17.3L8.0002 14H5.0002C4.71686 14 4.47953 13.904 4.2882 13.712C4.0962 13.5206 4.0002 13.2833 4.0002 13V8.99998C4.0002 8.71664 4.0962 8.47898 4.2882 8.28698C4.47953 8.09564 4.71686 7.99998 5.0002 7.99998H7.2002L3.1002 3.89998C2.91686 3.71664 2.8252 3.48331 2.8252 3.19998C2.8252 2.91664 2.91686 2.68331 3.1002 2.49998C3.28353 2.31664 3.51686 2.22498 3.8002 2.22498C4.08353 2.22498 4.31686 2.31664 4.5002 2.49998L21.5002 19.5C21.6835 19.6833 21.7752 19.9166 21.7752 20.2C21.7752 20.4833 21.6835 20.7166 21.5002 20.9C21.3169 21.0833 21.0835 21.175 20.8002 21.175C20.5169 21.175 20.2835 21.0833 20.1002 20.9ZM16.3502 2.64998C18.0502 3.33331 19.4169 4.42498 20.4502 5.92498C21.4835 7.42498 22.0002 9.10831 22.0002 10.975C22.0002 11.8583 21.8795 12.7083 21.6382 13.525C21.3962 14.3416 21.0502 15.1 20.6002 15.8L19.1502 14.35C19.4335 13.8333 19.6462 13.2916 19.7882 12.725C19.9295 12.1583 20.0002 11.575 20.0002 10.975C20.0002 9.50831 19.5962 8.19164 18.7882 7.02498C17.9795 5.85831 16.9085 5.00831 15.5752 4.47498C15.3919 4.40831 15.2502 4.29998 15.1502 4.14998C15.0502 3.99998 15.0002 3.83331 15.0002 3.64998C15.0002 3.28331 15.1419 2.99164 15.4252 2.77498C15.7085 2.55831 16.0169 2.51664 16.3502 2.64998ZM17.2502 12.45L15.0002 10.2V6.94998C15.7835 7.31664 16.3962 7.86664 16.8382 8.59998C17.2795 9.33331 17.5002 10.1333 17.5002 11C17.5002 11.25 17.4795 11.496 17.4382 11.738C17.3962 11.9793 17.3335 12.2166 17.2502 12.45ZM13.0002 8.19998L10.4002 5.59998L11.3002 4.69998C11.6169 4.38331 11.9792 4.31231 12.3872 4.48698C12.7959 4.66231 13.0002 4.97498 13.0002 5.42498V8.19998ZM11.0002 14.15V11.8L9.2002 9.99998H6.0002V12H8.85019L11.0002 14.15Z" fill="#0B0C0D" fill-opacity="0.76"/>
</svg>
