<svg width="24" height="24" viewBox="0 0 24 24" fill="none" xmlns="http://www.w3.org/2000/svg">
<path d="M18.6517 16.08C18.3057 16.846 18.1407 17.188 17.6947 17.865C17.0737 18.81 16.1987 19.988 15.1137 19.998C14.1497 20.007 13.9017 19.371 12.5937 19.378C11.2857 19.385 11.0117 20.009 10.0477 20.0001C8.96272 19.99 8.13372 18.927 7.51172 17.981C5.77572 15.337 5.59372 12.235 6.66472 10.586C7.42572 9.413 8.62672 8.728 9.75672 8.728C10.9067 8.728 11.6287 9.358 12.5797 9.358C13.5017 9.358 14.0637 8.727 15.3937 8.727C16.3987 8.727 17.4637 9.274 18.2217 10.219C15.7367 11.582 16.1407 15.131 18.6517 16.08ZM14.9297 6.699C14.3447 7.449 13.3387 8.03 12.3657 8C12.1887 7.033 12.6447 6.038 13.1967 5.367C13.8057 4.628 14.8477 4.061 15.7387 4C15.8897 5.01 15.4757 5.999 14.9297 6.699Z" fill="#0B0C0D" fill-opacity="0.76"/>
</svg>
