<svg width="24" height="24" viewBox="0 0 24 24" fill="none" xmlns="http://www.w3.org/2000/svg">
<path d="M12.5 22C10.9667 22 9.66667 21.4667 8.6 20.4C7.53333 19.3333 7 18.0333 7 16.5V6C7 4.9 7.39167 3.95833 8.175 3.175C8.95833 2.39167 9.9 2 11 2C12.1 2 13.0417 2.39167 13.825 3.175C14.6083 3.95833 15 4.9 15 6V15.5C15 16.2 14.7583 16.7917 14.275 17.275C13.7917 17.7583 13.2 18 12.5 18C11.8 18 11.2083 17.7583 10.725 17.275C10.2417 16.7917 10 16.2 10 15.5V6.75C10 6.53333 10.071 6.35433 10.213 6.213C10.3543 6.071 10.5333 6 10.75 6C10.9667 6 11.146 6.071 11.288 6.213C11.4293 6.35433 11.5 6.53333 11.5 6.75V15.5C11.5 15.7833 11.596 16.0207 11.788 16.212C11.9793 16.404 12.2167 16.5 12.5 16.5C12.7833 16.5 13.021 16.404 13.213 16.212C13.4043 16.0207 13.5 15.7833 13.5 15.5V6C13.5 5.3 13.2583 4.70833 12.775 4.225C12.2917 3.74167 11.7 3.5 11 3.5C10.3 3.5 9.70833 3.74167 9.225 4.225C8.74167 4.70833 8.5 5.3 8.5 6V16.5C8.5 17.6 8.89167 18.5417 9.675 19.325C10.4583 20.1083 11.4 20.5 12.5 20.5C13.6 20.5 14.5417 20.1083 15.325 19.325C16.1083 18.5417 16.5 17.6 16.5 16.5V6.75C16.5 6.53333 16.571 6.35433 16.713 6.213C16.8543 6.071 17.0333 6 17.25 6C17.4667 6 17.646 6.071 17.788 6.213C17.9293 6.35433 18 6.53333 18 6.75V16.5C18 18.0333 17.4667 19.3333 16.4 20.4C15.3333 21.4667 14.0333 22 12.5 22Z" fill="#0B0C0D" fill-opacity="0.76"/>
</svg>
