<svg width="24" height="24" viewBox="0 0 24 24" fill="none" xmlns="http://www.w3.org/2000/svg">
<path d="M15.35 20.3C15.0167 20.4334 14.7083 20.3917 14.425 20.175C14.1417 19.9584 14 19.6584 14 19.275C14 19.0917 14.0543 18.9294 14.163 18.788C14.271 18.646 14.4083 18.5417 14.575 18.475C15.9083 17.9417 16.9793 17.0917 17.788 15.925C18.596 14.7584 19 13.4417 19 11.975C19 10.5084 18.596 9.19171 17.788 8.02504C16.9793 6.85838 15.9083 6.00838 14.575 5.47504C14.3917 5.40838 14.25 5.30004 14.15 5.15004C14.05 5.00004 14 4.83338 14 4.65004C14 4.28338 14.1417 3.99171 14.425 3.77504C14.7083 3.55838 15.0167 3.51671 15.35 3.65004C17.05 4.33338 18.4167 5.42504 19.45 6.92504C20.4833 8.42504 21 10.1084 21 11.975C21 13.8417 20.4833 15.525 19.45 17.025C18.4167 18.525 17.05 19.6167 15.35 20.3ZM4 15C3.71667 15 3.47933 14.904 3.288 14.712C3.096 14.5207 3 14.2834 3 14V10C3 9.71671 3.096 9.47904 3.288 9.28704C3.47933 9.09571 3.71667 9.00004 4 9.00004H7L10.3 5.70004C10.6167 5.38338 10.979 5.31238 11.387 5.48704C11.7957 5.66238 12 5.97504 12 6.42504V17.575C12 18.025 11.7957 18.3374 11.387 18.512C10.979 18.6874 10.6167 18.6167 10.3 18.3L7 15H4ZM14 16V7.95004C14.75 8.30004 15.354 8.84171 15.812 9.57504C16.2707 10.3084 16.5 11.1167 16.5 12C16.5 12.8834 16.2707 13.6834 15.812 14.4C15.354 15.1167 14.75 15.65 14 16ZM10 8.85004L7.85 11H5V13H7.85L10 15.15V8.85004Z" fill="#0B0C0D" fill-opacity="0.76"/>
</svg>
