<svg width="24" height="24" viewBox="0 0 24 24" fill="none" xmlns="http://www.w3.org/2000/svg">
<path d="M10.5 11.4C12.5 11.4 12.3 13.9 12.3 13.9C12.3 16.9 9 17 9 17H4V7H9C10.6 7 12 7.7 12 9.5C12 11.3 10.5 11.4 10.5 11.4ZM6.3 8.6V10.8H9C9.5 10.8 9.9 10.6 9.9 9.6C9.9 8.6 9.2 8.6 9.2 8.6H8.8H6.3ZM9 15C9.4 15 10.2 14.9 10.2 13.8C10.2 12.4 9.2 12.4 9.2 12.4H6.3V15H9ZM16.5 9.4C20.5 9.4 20 13.7 20 13.8H14.9C14.9 15.6 16.6 15.5 16.6 15.5C18.3 15.5 18.2 14.4 18.2 14.4H19.9C19.9 17.2 16.5 17 16.5 17C12.4 17 12.7 13.2 12.7 13.2C12.7 13.2 12.7 9.4 16.5 9.4ZM18.1 12.4C18.1 12.4 18.1 10.8 16.5 10.9C15 10.9 14.8 12.4 14.8 12.4H18.1ZM14 7H19V8H14V7Z" fill="#0B0C0D" fill-opacity="0.76"/>
</svg>
