<svg width="24" height="24" viewBox="0 0 24 24" fill="none" xmlns="http://www.w3.org/2000/svg">
<path d="M4 21C3.71667 21 3.47933 20.904 3.288 20.712C3.096 20.5207 3 20.2833 3 20C3 19.7167 3.096 19.4793 3.288 19.288C3.47933 19.096 3.71667 19 4 19H20C20.2833 19 20.5207 19.096 20.712 19.288C20.904 19.4793 21 19.7167 21 20C21 20.2833 20.904 20.5207 20.712 20.712C20.5207 20.904 20.2833 21 20 21H4ZM4 17C3.71667 17 3.47933 16.904 3.288 16.712C3.096 16.5207 3 16.2833 3 16C3 15.7167 3.096 15.479 3.288 15.287C3.47933 15.0957 3.71667 15 4 15H20C20.2833 15 20.5207 15.0957 20.712 15.287C20.904 15.479 21 15.7167 21 16C21 16.2833 20.904 16.5207 20.712 16.712C20.5207 16.904 20.2833 17 20 17H4ZM4 13C3.71667 13 3.47933 12.904 3.288 12.712C3.096 12.5207 3 12.2833 3 12C3 11.7167 3.096 11.479 3.288 11.287C3.47933 11.0957 3.71667 11 4 11H20C20.2833 11 20.5207 11.0957 20.712 11.287C20.904 11.479 21 11.7167 21 12C21 12.2833 20.904 12.5207 20.712 12.712C20.5207 12.904 20.2833 13 20 13H4ZM4 9C3.71667 9 3.47933 8.904 3.288 8.712C3.096 8.52067 3 8.28333 3 8C3 7.71667 3.096 7.479 3.288 7.287C3.47933 7.09567 3.71667 7 4 7H20C20.2833 7 20.5207 7.09567 20.712 7.287C20.904 7.479 21 7.71667 21 8C21 8.28333 20.904 8.52067 20.712 8.712C20.5207 8.904 20.2833 9 20 9H4ZM4 5C3.71667 5 3.47933 4.904 3.288 4.712C3.096 4.52067 3 4.28333 3 4C3 3.71667 3.096 3.479 3.288 3.287C3.47933 3.09567 3.71667 3 4 3H20C20.2833 3 20.5207 3.09567 20.712 3.287C20.904 3.479 21 3.71667 21 4C21 4.28333 20.904 4.52067 20.712 4.712C20.5207 4.904 20.2833 5 20 5H4Z" fill="#0B0C0D" fill-opacity="0.76"/>
</svg>
