<svg width="24" height="24" viewBox="0 0 24 24" fill="none" xmlns="http://www.w3.org/2000/svg">
<path d="M14.5 17C13.8 17 13.2083 16.7583 12.725 16.275C12.2417 15.7917 12 15.2 12 14.5C12 13.8 12.2417 13.2083 12.725 12.725C13.2083 12.2417 13.8 12 14.5 12C15.2 12 15.7917 12.2417 16.275 12.725C16.7583 13.2083 17 13.8 17 14.5C17 15.2 16.7583 15.7917 16.275 16.275C15.7917 16.7583 15.2 17 14.5 17ZM5 21C4.45 21 3.979 20.8043 3.587 20.413C3.19567 20.021 3 19.55 3 19V5C3 4.45 3.19567 3.97933 3.587 3.588C3.979 3.196 4.45 3 5 3H6V2C6 1.71667 6.09567 1.479 6.287 1.287C6.479 1.09567 6.71667 1 7 1C7.28333 1 7.521 1.09567 7.713 1.287C7.90433 1.479 8 1.71667 8 2V3H16V2C16 1.71667 16.096 1.479 16.288 1.287C16.4793 1.09567 16.7167 1 17 1C17.2833 1 17.5207 1.09567 17.712 1.287C17.904 1.479 18 1.71667 18 2V3H19C19.55 3 20.021 3.196 20.413 3.588C20.8043 3.97933 21 4.45 21 5V19C21 19.55 20.8043 20.021 20.413 20.413C20.021 20.8043 19.55 21 19 21H5ZM5 19H19V9H5V19ZM5 7H19V5H5V7ZM5 7V5V7Z" fill="#0B0C0D" fill-opacity="0.76"/>
</svg>
