<svg width="24" height="24" viewBox="0 0 24 24" fill="none" xmlns="http://www.w3.org/2000/svg">
<path d="M4 23C3.45 23 2.97933 22.8043 2.588 22.413C2.196 22.021 2 21.55 2 21C2 20.45 2.196 19.979 2.588 19.587C2.97933 19.1957 3.45 19 4 19H20C20.55 19 21.021 19.1957 21.413 19.587C21.8043 19.979 22 20.45 22 21C22 21.55 21.8043 22.021 21.413 22.413C21.021 22.8043 20.55 23 20 23H4ZM7.15 16C6.7 16 6.36667 15.85 6.15 15.55C5.93333 15.25 5.90833 14.8833 6.075 14.45L10.325 3.15C10.4583 2.83333 10.6873 2.56233 11.012 2.337C11.3373 2.11233 11.675 2 12.025 2C12.3583 2 12.6833 2.11233 13 2.337C13.3167 2.56233 13.5417 2.83333 13.675 3.15L17.925 14.45C18.0917 14.8833 18.0667 15.25 17.85 15.55C17.6333 15.85 17.2917 16 16.825 16C16.625 16 16.4293 15.9333 16.238 15.8C16.046 15.6667 15.9167 15.5083 15.85 15.325L14.85 12.4H9.2L8.15 15.325C8.08333 15.5083 7.95433 15.6667 7.763 15.8C7.571 15.9333 7.36667 16 7.15 16ZM9.9 10.4H14.1L12.05 4.6H11.95L9.9 10.4Z" fill="#0B0C0D" fill-opacity="0.76"/>
</svg>
