<svg width="24" height="24" viewBox="0 0 24 24" fill="none" xmlns="http://www.w3.org/2000/svg">
<path d="M5.5 22C5.1 22 4.75 21.85 4.45 21.55C4.15 21.25 4 20.9 4 20.5V3.5C4 3.1 4.15 2.75 4.45 2.45C4.75 2.15 5.1 2 5.5 2H14.525L20 7.475V20.5C20 20.9 19.85 21.25 19.55 21.55C19.25 21.85 18.9 22 18.5 22H5.5ZM13.775 8.15V3.5H5.5V20.5H18.5V8.15H13.775Z" fill="#0B0C0D" fill-opacity="0.76"/>
<path d="M8.31515 13.6859C8.83663 13.6859 9.21714 13.7908 9.45669 14.0007C9.69624 14.2105 9.81602 14.5045 9.81602 14.8825C9.81602 15.0544 9.78838 15.2181 9.73309 15.3736C9.67966 15.5274 9.59121 15.664 9.46775 15.7834C9.34429 15.9009 9.18121 15.9941 8.97851 16.0628C8.77766 16.1316 8.52982 16.1659 8.23499 16.1659H7.8038V17.6529H7.14043V13.6859H8.31515ZM8.27092 14.2259H7.8038V15.6233H8.16589C8.37411 15.6233 8.55101 15.5997 8.69658 15.5527C8.84215 15.5039 8.95272 15.427 9.02827 15.3221C9.10382 15.2172 9.14159 15.0788 9.14159 14.9069C9.14159 14.6772 9.07065 14.5063 8.92876 14.3941C8.78872 14.282 8.56944 14.2259 8.27092 14.2259Z" fill="#0B0C0D" fill-opacity="0.76"/>
<path d="M13.904 15.6314C13.904 16.0782 13.8193 16.4517 13.6497 16.752C13.4802 17.0505 13.2342 17.2757 12.9117 17.4277C12.5893 17.5778 12.2005 17.6529 11.7453 17.6529H10.6231V13.6859H11.8669C12.2852 13.6859 12.6464 13.7601 12.9504 13.9084C13.2545 14.0549 13.4894 14.2729 13.6553 14.5623C13.8211 14.85 13.904 15.2063 13.904 15.6314ZM13.213 15.6504C13.213 15.3248 13.1605 15.0571 13.0555 14.8472C12.9523 14.6374 12.7993 14.4818 12.5966 14.3805C12.3958 14.2774 12.1479 14.2259 11.8531 14.2259H11.2865V17.1075H11.7564C12.2447 17.1075 12.6095 16.9854 12.8509 16.7412C13.0923 16.497 13.213 16.1334 13.213 15.6504Z" fill="#0B0C0D" fill-opacity="0.76"/>
<path d="M15.4325 17.6529H14.7747V13.6859H17.0578V14.234H15.4325V15.4713H16.9528V16.0167H15.4325V17.6529Z" fill="#0B0C0D" fill-opacity="0.76"/>
</svg>
