<svg width="24" height="24" viewBox="0 0 24 24" fill="none" xmlns="http://www.w3.org/2000/svg">
<path d="M20.3254 22.475L17.9504 20.1V21H6.05039V16.6H2.00039V10.45C2.00039 9.69914 2.25456 9.06977 2.76289 8.56185C3.27122 8.05393 3.90039 7.79998 4.65039 7.79998H5.65039L1.52539 3.67498L2.60039 2.59998L21.4004 21.4L20.3254 22.475ZM7.55039 19.5H16.4504V18.6L12.5504 14.7H7.55039V19.5ZM18.7504 16.6L17.2504 15.1H20.5004V10.4446C20.5004 10.1149 20.3902 9.84164 20.1698 9.62498C19.9494 9.40831 19.6762 9.29998 19.3504 9.29998H11.4504L9.95039 7.79998H19.3504C20.1012 7.79998 20.7306 8.05393 21.2385 8.56185C21.7464 9.06977 22.0004 9.69914 22.0004 10.45V16.6H18.7504ZM3.50039 15.1H6.05039V13.2H11.0504L7.15039 9.29998H4.64554C4.31544 9.29998 4.04206 9.41018 3.82539 9.6306C3.60872 9.85102 3.50039 10.1241 3.50039 10.45V15.1ZM16.4504 7.79998V4.49998H6.65039L5.15039 2.99998H17.9504V7.79998H16.4504ZM18.4754 11.675C18.6754 11.675 18.8504 11.6 19.0004 11.45C19.1504 11.3 19.2254 11.125 19.2254 10.925C19.2254 10.725 19.1504 10.55 19.0004 10.4C18.8504 10.25 18.6754 10.175 18.4754 10.175C18.2754 10.175 18.1004 10.25 17.9504 10.4C17.8004 10.55 17.7254 10.725 17.7254 10.925C17.7254 11.125 17.8004 11.3 17.9504 11.45C18.1004 11.6 18.2754 11.675 18.4754 11.675ZM4.65039 9.29998H7.15039H3.50039H4.65039ZM19.3504 9.29998H20.5004H11.4504H19.3504Z" fill="#0B0C0D" fill-opacity="0.76"/>
</svg>
