<svg width="24" height="24" viewBox="0 0 24 24" fill="none" xmlns="http://www.w3.org/2000/svg">
<path d="M3.00037 10C2.71703 10 2.4797 9.9 2.28837 9.7C2.09637 9.5 2.01703 9.26667 2.05037 9C2.16703 7.9 2.4547 6.84567 2.91337 5.837C3.37137 4.829 3.97537 3.925 4.72537 3.125C4.9087 2.94167 5.14203 2.85 5.42537 2.85C5.7087 2.85 5.95037 2.95 6.15037 3.15C6.3337 3.33333 6.42537 3.55833 6.42537 3.825C6.42537 4.09167 6.3337 4.33333 6.15037 4.55C5.56703 5.18333 5.09637 5.87067 4.73837 6.612C4.3797 7.354 4.15037 8.15 4.05037 9C4.01703 9.28333 3.9047 9.52067 3.71337 9.712C3.52137 9.904 3.2837 10 3.00037 10ZM21.0004 10C20.7337 10 20.5004 9.904 20.3004 9.712C20.1004 9.52067 19.9837 9.28333 19.9504 9C19.8504 8.15 19.6214 7.354 19.2634 6.612C18.9047 5.87067 18.4337 5.18333 17.8504 4.55C17.667 4.33333 17.5754 4.09167 17.5754 3.825C17.5754 3.55833 17.6754 3.33333 17.8754 3.15C18.0754 2.95 18.3127 2.85 18.5874 2.85C18.8627 2.85 19.092 2.94167 19.2754 3.125C20.0254 3.925 20.6297 4.829 21.0884 5.837C21.5464 6.84567 21.8337 7.9 21.9504 9C21.9837 9.26667 21.9044 9.5 21.7124 9.7C21.521 9.9 21.2837 10 21.0004 10ZM5.00037 19C4.71703 19 4.47937 18.904 4.28737 18.712C4.09603 18.5207 4.00037 18.2833 4.00037 18C4.00037 17.7167 4.09603 17.4793 4.28737 17.288C4.47937 17.096 4.71703 17 5.00037 17H6.00037V10C6.00037 8.61667 6.41703 7.38733 7.25037 6.312C8.0837 5.23733 9.16703 4.53333 10.5004 4.2V3.5C10.5004 3.08333 10.6464 2.72933 10.9384 2.438C11.2297 2.146 11.5837 2 12.0004 2C12.417 2 12.771 2.146 13.0624 2.438C13.3544 2.72933 13.5004 3.08333 13.5004 3.5V4.2C14.8337 4.53333 15.917 5.23733 16.7504 6.312C17.5837 7.38733 18.0004 8.61667 18.0004 10V17H19.0004C19.2837 17 19.521 17.096 19.7124 17.288C19.9044 17.4793 20.0004 17.7167 20.0004 18C20.0004 18.2833 19.9044 18.5207 19.7124 18.712C19.521 18.904 19.2837 19 19.0004 19H5.00037ZM12.0004 22C11.4504 22 10.9797 21.8043 10.5884 21.413C10.1964 21.021 10.0004 20.55 10.0004 20H14.0004C14.0004 20.55 13.8047 21.021 13.4134 21.413C13.0214 21.8043 12.5504 22 12.0004 22ZM8.00037 17H16.0004V10C16.0004 8.9 15.6087 7.95833 14.8254 7.175C14.042 6.39167 13.1004 6 12.0004 6C10.9004 6 9.9587 6.39167 9.17537 7.175C8.39203 7.95833 8.00037 8.9 8.00037 10V17Z" fill="#0B0C0D" fill-opacity="0.76"/>
</svg>
