<svg width="24" height="24" viewBox="0 0 24 24" fill="none" xmlns="http://www.w3.org/2000/svg">
<path d="M9.54963 17.575C9.4163 17.575 9.2913 17.554 9.17463 17.512C9.05797 17.4707 8.94963 17.4 8.84963 17.3L4.54963 13C4.3663 12.8167 4.27863 12.579 4.28663 12.287C4.2953 11.9957 4.3913 11.7584 4.57463 11.575C4.75797 11.3917 4.9913 11.3 5.27463 11.3C5.55797 11.3 5.7913 11.3917 5.97463 11.575L9.54963 15.15L18.0246 6.67502C18.208 6.49169 18.4456 6.40002 18.7376 6.40002C19.029 6.40002 19.2663 6.49169 19.4496 6.67502C19.633 6.85836 19.7246 7.09569 19.7246 7.38702C19.7246 7.67902 19.633 7.91669 19.4496 8.10002L10.2496 17.3C10.1496 17.4 10.0413 17.4707 9.92463 17.512C9.80797 17.554 9.68297 17.575 9.54963 17.575Z" fill="#0B0C0D" fill-opacity="0.76"/>
</svg>
