<svg width="24" height="24" viewBox="0 0 24 24" fill="none" xmlns="http://www.w3.org/2000/svg">
<path d="M17.6254 20.8L11.1754 14.3C10.7921 14.4333 10.4087 14.5417 10.0254 14.625C9.64206 14.7083 9.25039 14.75 8.85039 14.75C7.23234 14.75 5.85699 14.1861 4.72434 13.0583C3.59171 11.9306 3.02539 10.5611 3.02539 8.95C3.02539 8.43333 3.09337 7.9301 3.22934 7.4403C3.36531 6.95048 3.55566 6.48705 3.80039 6.05L7.42539 9.675L9.72539 7.525L6.00039 3.8C6.43231 3.54737 6.89028 3.35088 7.37432 3.21053C7.85837 3.07018 8.35039 3 8.85039 3C10.5032 3 11.908 3.57847 13.065 4.73542C14.2219 5.89236 14.8004 7.29722 14.8004 8.95C14.8004 9.35 14.7587 9.74167 14.6754 10.125C14.5921 10.5083 14.4837 10.8917 14.3504 11.275L20.8254 17.725C21.0087 17.9076 21.1004 18.1283 21.1004 18.387C21.1004 18.6457 21.0087 18.8667 20.8254 19.05L18.9254 20.8C18.7471 20.9833 18.5317 21.075 18.2792 21.075C18.0267 21.075 17.8087 20.9833 17.6254 20.8ZM18.3254 19.375L19.3254 18.375L12.5004 11.55C12.7671 11.2 12.9671 10.7875 13.1004 10.3125C13.2337 9.8375 13.3004 9.38333 13.3004 8.95C13.3004 7.7 12.8379 6.64167 11.9129 5.775C10.9879 4.90833 9.93372 4.46667 8.75039 4.45L11.2754 7.025C11.4254 7.175 11.5004 7.35833 11.5004 7.575C11.5004 7.79167 11.4254 7.975 11.2754 8.125L7.97539 11.225C7.82539 11.375 7.64206 11.45 7.42539 11.45C7.20872 11.45 7.02539 11.375 6.87539 11.225L4.45039 8.825C4.50039 10.1083 4.95596 11.1667 5.81709 12C6.67822 12.8333 7.68932 13.25 8.85039 13.25C9.26706 13.25 9.70872 13.1833 10.1754 13.05C10.6421 12.9167 11.0504 12.7167 11.4004 12.45L18.3254 19.375Z" fill="#0B0C0D" fill-opacity="0.76"/>
</svg>
