<svg width="112" height="112" viewBox="0 0 112 112" fill="none" xmlns="http://www.w3.org/2000/svg">
<path d="M55.0667 19.6C49.912 19.6 45.7333 15.4213 45.7333 10.2667C45.7333 5.11201 49.912 0.933333 55.0667 0.933333C60.2213 0.933333 64.4 5.11201 64.4 10.2667C64.4 15.4213 60.2213 19.6 55.0667 19.6ZM88.0647 32.802C83.1678 32.802 79.198 28.8323 79.198 23.9353C79.198 19.0384 83.1678 15.0687 88.0647 15.0687C92.9616 15.0687 96.9314 19.0384 96.9314 23.9353C96.9314 28.8323 92.9616 32.802 88.0647 32.802ZM101.733 65.3333C97.0942 65.3333 93.3334 61.5725 93.3334 56.9333C93.3334 52.2941 97.0942 48.5333 101.733 48.5333C106.373 48.5333 110.133 52.2941 110.133 56.9333C110.133 61.5725 106.373 65.3333 101.733 65.3333ZM88.0647 97.8647C83.6832 97.8647 80.1313 94.3128 80.1313 89.9313C80.1313 85.5499 83.6832 81.998 88.0647 81.998C92.4461 81.998 95.998 85.5499 95.998 89.9313C95.998 94.3128 92.4461 97.8647 88.0647 97.8647ZM55.0667 111.067C50.943 111.067 47.6 107.724 47.6 103.6C47.6 99.4763 50.943 96.1333 55.0667 96.1333C59.1904 96.1333 62.5333 99.4763 62.5333 103.6C62.5333 107.724 59.1904 111.067 55.0667 111.067ZM22.0687 96.9313C18.2027 96.9313 15.0687 93.7973 15.0687 89.9313C15.0687 86.0653 18.2027 82.9313 22.0687 82.9313C25.9347 82.9313 29.0687 86.0653 29.0687 89.9313C29.0687 93.7973 25.9347 96.9313 22.0687 96.9313ZM8.4 63.4667C4.79174 63.4667 1.86667 60.5416 1.86667 56.9333C1.86667 53.3251 4.79174 50.4 8.4 50.4C12.0083 50.4 14.9333 53.3251 14.9333 56.9333C14.9333 60.5416 12.0083 63.4667 8.4 63.4667ZM22.0687 30.002C18.7181 30.002 16.002 27.2859 16.002 23.9353C16.002 20.5848 18.7181 17.8687 22.0687 17.8687C25.4192 17.8687 28.1353 20.5848 28.1353 23.9353C28.1353 27.2859 25.4192 30.002 22.0687 30.002Z" fill="#0F2364"/>
</svg>
