<svg width="24" height="24" viewBox="0 0 24 24" fill="none" xmlns="http://www.w3.org/2000/svg">
<path d="M12 14.575C11.8667 14.575 11.7417 14.554 11.625 14.512C11.5083 14.4707 11.4 14.4 11.3 14.3L7.7 10.7C7.51667 10.5167 7.425 10.2833 7.425 10C7.425 9.71667 7.51667 9.48333 7.7 9.3C7.88333 9.11667 8.12067 9.02067 8.412 9.012C8.704 9.004 8.94167 9.09167 9.125 9.275L11 11.15V4C11 3.71667 11.096 3.479 11.288 3.287C11.4793 3.09567 11.7167 3 12 3C12.2833 3 12.521 3.09567 12.713 3.287C12.9043 3.479 13 3.71667 13 4V11.15L14.875 9.275C15.0583 9.09167 15.296 9.004 15.588 9.012C15.8793 9.02067 16.1167 9.11667 16.3 9.3C16.4833 9.48333 16.575 9.71667 16.575 10C16.575 10.2833 16.4833 10.5167 16.3 10.7L12.7 14.3C12.6 14.4 12.4917 14.4707 12.375 14.512C12.2583 14.554 12.1333 14.575 12 14.575ZM6 19C5.45 19 4.97933 18.8043 4.588 18.413C4.196 18.021 4 17.55 4 17V15C4 14.7167 4.09567 14.479 4.287 14.287C4.479 14.0957 4.71667 14 5 14C5.28333 14 5.521 14.0957 5.713 14.287C5.90433 14.479 6 14.7167 6 15V17H18V15C18 14.7167 18.096 14.479 18.288 14.287C18.4793 14.0957 18.7167 14 19 14C19.2833 14 19.5207 14.0957 19.712 14.287C19.904 14.479 20 14.7167 20 15V17C20 17.55 19.8043 18.021 19.413 18.413C19.021 18.8043 18.55 19 18 19H6Z" fill="#000000" fill-opacity="1"/>
</svg>
