<svg width="24" height="24" viewBox="0 0 24 24" fill="none" xmlns="http://www.w3.org/2000/svg">
<path d="M12 4C7.6 4 4 7.6 4 12C4 16.4 7.6 20 12 20C16.4 20 20 16.4 20 12C20 7.6 16.4 4 12 4ZM14.2 11.4C14.2 11.4 14 10.8 13.9 10.6C15.6 9.8 16.7 8.9 17.1 8.4C17.8 9.3 18.2 10.4 18.3 11.6C17.5 11.4 15.7 11.1 14.2 11.4ZM13.1 9.1C12.3 7.7 11.4 6.5 11 5.8C12.9 5.3 14.6 5.9 15.9 7.1C15.5 7.6 14.7 8.4 13.1 9.1ZM9.1 6.5C9.5 7 10.3 8.2 11.1 9.7C8.9 10.2 6.9 10.3 6 10.3C6.4 8.7 7.6 7.3 9.1 6.5ZM12 11.3C12.1 11.5 12.2 11.7 12.3 11.8C9.5 12.7 7.7 15 7.1 15.9C6.3 14.8 5.8 13.5 5.8 12.2C6.7 12.1 9.3 12 12 11.3ZM13 13.5C13.7 15.5 14.1 17.1 14.2 17.9C12.1 18.6 9.7 18.2 8.4 17.1C8.8 16.4 10.1 14.6 13 13.5ZM15.9 16.9C15.7 16.1 15.4 14.7 14.8 13C15.9 12.8 17.5 13 18.1 13.2C17.8 14.7 17 16 15.9 16.9Z" fill="#000000" fill-opacity="1"/>
</svg>
