<svg width="152" height="29" viewBox="0 0 152 29" fill="none" xmlns="http://www.w3.org/2000/svg">
<g clip-path="url(#clip0_1070_24043)">
<path d="M8.21388 21.7052C12.0048 24.1086 16.4266 25.334 20.9174 25.2256C25.4006 25.3295 29.8139 24.1043 33.5984 21.7052C33.7858 21.5707 33.9732 21.4436 34.153 21.3016C34.2018 21.2673 34.2378 21.218 34.2554 21.1612C34.273 21.1044 34.2713 21.0434 34.2505 20.9877C34.2292 20.9287 34.189 20.8785 34.1362 20.8447C34.0833 20.8109 34.0207 20.7955 33.9582 20.8008C28.9292 20.7111 23.608 20.7261 21.0973 20.6364C15.1015 20.4271 11.0319 20.0609 6.61751 19.7619C6.55796 19.7571 6.49841 19.7712 6.4473 19.802C6.39619 19.8329 6.35611 19.879 6.33271 19.9338C6.31028 19.9879 6.30471 20.0475 6.31675 20.1049C6.32878 20.1622 6.35785 20.2146 6.40017 20.2552C6.96286 20.7884 7.56957 21.2735 8.21388 21.7052Z" fill="white"/>
<path d="M13.1836 13.0725C13.1836 12.9529 13.1836 12.8408 13.1836 12.7212V12.3774V12.0261V11.9812H13.2285H14.2478H14.7125H15.2746H16.3238H17.2307C17.2605 11.9812 17.2891 11.9694 17.3102 11.9484C17.3313 11.9274 17.3431 11.8989 17.3431 11.8691V11.6001C17.3431 11.458 17.3431 11.316 17.3431 11.174V10.7405C17.3431 10.6583 17.3431 10.5761 17.3431 10.4864C17.344 10.4707 17.3411 10.455 17.3345 10.4407C17.328 10.4264 17.3181 10.4138 17.3056 10.4042C17.2926 10.3986 17.2786 10.3958 17.2644 10.3958C17.2503 10.3958 17.2362 10.3986 17.2232 10.4042L15.9341 10.3369L14.4352 10.3892L12.9362 10.4341L11.6172 10.4789C11.5899 10.4807 11.5642 10.4923 11.5449 10.5115C11.5256 10.5308 11.514 10.5564 11.5122 10.5836C11.4448 11.189 11.3998 11.7944 11.3698 12.3923C11.3399 12.9903 11.3174 13.7003 11.3174 14.3431C11.3174 14.9859 11.3174 15.6436 11.3698 16.2939C11.4223 16.9441 11.4448 17.4972 11.5122 18.1026C11.514 18.1298 11.5256 18.1554 11.5449 18.1747C11.5642 18.1939 11.5899 18.2055 11.6172 18.2073L12.9587 18.2521H14.1354H14.4727L16.0166 18.297L17.4181 18.3418C17.4493 18.34 17.4788 18.3269 17.5009 18.3048C17.523 18.2828 17.5362 18.2534 17.538 18.2222C17.538 18.1251 17.538 18.0279 17.538 17.9382C17.538 17.8485 17.538 17.6318 17.538 17.4748V17.0114V16.7124C17.5345 16.6826 17.5205 16.655 17.4986 16.6345C17.4766 16.614 17.4481 16.6019 17.4181 16.6003H16.4887H15.4095H14.0005H13.251H13.206V16.5555C13.206 16.4359 13.206 16.3088 13.206 16.1818C13.206 16.0547 13.206 15.9276 13.206 15.8006C13.206 15.6735 13.206 15.5464 13.206 15.4194C13.206 15.2923 13.206 15.1727 13.206 15.0457V14.9709H16.871C16.9022 14.9692 16.9317 14.956 16.9538 14.9339C16.9759 14.9119 16.9891 14.8825 16.9909 14.8513V13.5583C17.0006 13.5318 17.0006 13.5026 16.9909 13.4761C16.9812 13.4637 16.9686 13.4538 16.9543 13.4473C16.9399 13.4408 16.9242 13.4378 16.9084 13.4387H13.1761V13.3864C13.1761 13.3266 13.1836 13.1846 13.1836 13.0725Z" fill="white"/>
<path d="M39.1073 20.868H37.6084C37.5662 20.8675 37.5243 20.8759 37.4855 20.8927C37.4468 20.9094 37.412 20.9341 37.3835 20.9652C35.7881 22.7054 33.8488 24.0974 31.6876 25.0536C28.2797 26.5641 24.5869 27.3287 20.8577 27.2959C16.0237 27.3928 11.2702 26.0529 7.20238 23.4466C5.58117 22.3877 4.20212 20.9997 3.15524 19.3732C2.20942 17.9284 1.70578 16.2403 1.70578 14.5149C1.70578 12.7895 2.20942 11.1014 3.15524 9.6567C4.84472 7.13698 7.23627 5.16505 10.0354 3.98376C13.4421 2.46966 17.1357 1.7049 20.8652 1.74149C25.7008 1.6422 30.4567 2.97948 34.5281 5.58324C35.4863 6.2331 36.3709 6.98494 37.1662 7.82551C37.1929 7.85679 37.2263 7.88174 37.2639 7.89855C37.3015 7.91536 37.3424 7.9236 37.3835 7.92267H38.0281H38.8825C38.9362 7.92201 38.9886 7.90623 39.0337 7.87713C39.0788 7.84804 39.1147 7.80682 39.1373 7.75824C39.1667 7.71251 39.1823 7.65933 39.1823 7.60502C39.1823 7.55071 39.1667 7.49753 39.1373 7.4518C37.3262 5.29049 35.0381 3.57653 32.452 2.44407C28.8268 0.815921 24.8935 -0.0175297 20.9177 -6.06803e-06C15.73 -0.0906569 10.6316 1.35276 6.26555 4.14819C4.44866 5.34452 2.9039 6.90798 1.73125 8.73737C0.627231 10.4587 0.0347613 12.4567 0.0224609 14.5C0.033715 16.5411 0.626326 18.537 1.73125 20.2551C3.60042 23.0627 6.25262 25.2634 9.36086 26.5858C12.9942 28.2125 16.935 29.0434 20.9177 29.0224C26.1031 29.1138 31.1993 27.6703 35.5623 24.8742C37.0084 23.9066 38.291 22.7157 39.3621 21.3464C39.39 21.3015 39.4048 21.2497 39.4048 21.1969C39.4048 21.1441 39.39 21.0923 39.3621 21.0474C39.339 20.998 39.3033 20.9555 39.2586 20.924C39.2139 20.8926 39.1618 20.8733 39.1073 20.868Z" fill="white"/>
<path d="M6.61042 14.9037H8.46161V14.9485C8.46161 15.2101 8.46161 15.4792 8.46161 15.7483C8.46161 16.0173 8.46161 16.2714 8.51407 16.5405C8.56654 16.8096 8.56653 17.0787 8.58902 17.3403C8.6115 17.6019 8.64898 17.7812 8.67146 17.998C8.67728 18.0248 8.69117 18.0491 8.71126 18.0679C8.73135 18.0866 8.75669 18.0987 8.78388 18.1026H9.09866H9.55584H10.0205H10.2903C10.3193 18.1135 10.3513 18.1135 10.3803 18.1026C10.3912 18.0737 10.3912 18.0418 10.3803 18.0129C10.3128 17.43 10.2603 16.8395 10.2229 16.2565C10.1854 15.6735 10.1704 14.9635 10.1704 14.3207C10.1704 13.6779 10.1704 13.0276 10.2229 12.3848C10.2753 11.7421 10.3128 11.2114 10.3803 10.6284C10.3912 10.5995 10.3912 10.5676 10.3803 10.5387C10.356 10.5155 10.3239 10.5022 10.2903 10.5013H9.82565H9.58582H8.83635C8.80915 10.5053 8.78381 10.5174 8.76372 10.5361C8.74363 10.5548 8.72974 10.5792 8.72392 10.606C8.72392 10.8003 8.67146 11.0021 8.64898 11.1964C8.62649 11.3908 8.59652 11.6897 8.58153 11.9439C8.56654 12.198 8.53656 12.4297 8.52157 12.6913C8.50658 12.9529 8.52157 13.1696 8.52157 13.4387V13.4836H5.98086V13.4761C5.98086 13.2444 5.98086 13.0052 6.01834 12.7287C6.05581 12.4521 6.01834 12.2428 6.08579 11.9812C6.15324 11.7196 6.13825 11.5029 6.16823 11.2338C6.19821 10.9647 6.2207 10.89 6.25067 10.7181C6.26152 10.6866 6.26152 10.6524 6.25067 10.6209C6.22684 10.5971 6.1945 10.5836 6.16074 10.5836H5.9284H5.49371H5.06651H4.76672C4.74014 10.586 4.71499 10.5966 4.69482 10.6141C4.67465 10.6315 4.66047 10.6548 4.6543 10.6807C4.54938 11.2413 4.47443 11.8168 4.41447 12.3774C4.35451 12.9379 4.33203 13.5882 4.33203 14.1936C4.33203 14.799 4.33203 15.4044 4.41447 16.0098C4.49691 16.6153 4.54938 17.1385 4.6543 17.7065C4.66143 17.7319 4.67588 17.7547 4.69587 17.7719C4.71586 17.7892 4.7405 17.8002 4.76672 17.8037H5.06651H5.49371H5.9284H6.16074C6.18972 17.8146 6.22169 17.8146 6.25067 17.8037C6.26152 17.7722 6.26152 17.738 6.25067 17.7065L6.16074 17.1235C6.12576 16.8694 6.09578 16.6202 6.0708 16.3761C6.0708 16.1145 6.01834 15.8529 6.00335 15.6287C5.98836 15.4044 6.00335 15.1055 6.00335 14.8812V14.8962H6.6404L6.61042 14.9037Z" fill="white"/>
<path d="M31.2157 16.8469H28.5475H27.6182H27.5732V16.8021C27.5732 16.2266 27.6182 15.6585 27.6257 15.1054V14.358C27.6257 14.0366 27.6257 13.7078 27.6257 13.3864C27.6257 12.8258 27.6257 12.2503 27.5657 11.6897C27.5058 11.1291 27.5058 10.6657 27.4608 10.15C27.4589 10.1216 27.4462 10.095 27.4253 10.0755C27.4045 10.0561 27.377 10.0453 27.3484 10.0454H26.9212H26.3441H25.767H25.3698C25.354 10.0438 25.338 10.0464 25.3235 10.053C25.309 10.0595 25.2965 10.0698 25.2873 10.0827C25.2808 10.0955 25.2773 10.1096 25.2773 10.1239C25.2773 10.1382 25.2808 10.1523 25.2873 10.165C25.2873 10.8227 25.3473 11.4879 25.3623 12.1531C25.3773 12.8183 25.3623 13.5956 25.3623 14.3132C25.3623 15.0307 25.3623 15.7557 25.3623 16.4732C25.3623 17.1907 25.3173 17.8036 25.2873 18.4614C25.2808 18.4741 25.2773 18.4882 25.2773 18.5025C25.2773 18.5168 25.2808 18.5309 25.2873 18.5436C25.3004 18.5491 25.3144 18.552 25.3286 18.552C25.3427 18.552 25.3568 18.5491 25.3698 18.5436H26.1193H26.6814H28.1803L29.6792 18.5809H31.0733C31.1002 18.5797 31.126 18.5695 31.1464 18.5519C31.1668 18.5342 31.1806 18.5102 31.1857 18.4838L31.2306 18.1325C31.2306 17.9606 31.2306 17.7962 31.2831 17.6317L31.3281 17.1384C31.3281 17.0263 31.3281 16.9217 31.3281 16.8096C31.3268 16.7783 31.3134 16.7488 31.2906 16.7273C31.2776 16.73 31.2653 16.7352 31.2545 16.7427C31.2436 16.7502 31.2344 16.7599 31.2274 16.7711C31.2203 16.7823 31.2157 16.7948 31.2137 16.8078C31.2117 16.8208 31.2123 16.8342 31.2157 16.8469Z" fill="white"/>
<path d="M41.0409 12.026C40.9473 11.2915 40.8122 10.5628 40.6362 9.8435C40.6309 9.81779 40.6168 9.79474 40.5962 9.77835C40.5757 9.76196 40.55 9.75328 40.5237 9.75381L38.4027 9.79118L36.2143 9.82855L34.0858 9.87339L32.1597 9.91077C32.1259 9.91647 32.0946 9.93208 32.0697 9.95561C32.0588 9.98451 32.0588 10.0164 32.0697 10.0453C32.1597 10.7255 32.2271 11.4131 32.2796 12.1007C32.332 12.7883 32.3545 13.5956 32.3545 14.343C32.3545 15.0904 32.3545 15.8378 32.2796 16.5853C32.2046 17.3327 32.1597 17.9605 32.0697 18.6407C32.0588 18.6696 32.0588 18.7015 32.0697 18.7304C32.0936 18.7542 32.1259 18.7676 32.1597 18.7677H33.2239H33.6436H33.8535H34.3481C34.3751 18.7665 34.4009 18.7563 34.4213 18.7386C34.4417 18.721 34.4555 18.697 34.4605 18.6706C34.4605 18.4837 34.5205 18.2968 34.5505 18.0876C34.5805 17.8783 34.6179 17.6242 34.6479 17.3775C34.6779 17.1309 34.7004 16.8917 34.7154 16.6301C34.7303 16.3685 34.7154 16.1592 34.7678 15.8827V15.8378H38.3878V15.8901C38.3878 16.1293 38.3428 16.376 38.3128 16.6376C38.2828 16.8992 38.2603 17.1159 38.2229 17.385C38.1854 17.6541 38.1479 17.8633 38.103 18.1324C38.058 18.4015 38.0355 18.4912 37.998 18.6706C37.9912 18.6859 37.9877 18.7024 37.9877 18.7191C37.9877 18.7359 37.9912 18.7524 37.998 18.7677C38.027 18.7786 38.059 18.7786 38.088 18.7677H39.2347H39.9092H40.4638C40.4901 18.7683 40.5157 18.7596 40.5363 18.7432C40.5568 18.7268 40.571 18.7037 40.5762 18.678C40.7533 17.9593 40.886 17.2305 40.9734 16.4956C41.0719 15.7271 41.1219 14.9532 41.1233 14.1785C41.1345 13.4601 41.107 12.7415 41.0409 12.026ZM38.4852 14.2682H34.8503V14.2234C34.8503 14.0141 34.8503 13.8048 34.8503 13.5956V12.9677L34.8053 12.3474C34.8053 12.1381 34.8053 11.9288 34.7528 11.7195V11.6672H38.3503V11.7046C38.3503 11.9139 38.4027 12.1306 38.4177 12.3399C38.4327 12.5492 38.4177 12.7659 38.4702 12.9827C38.5227 13.1994 38.4702 13.4162 38.5077 13.618C38.5451 13.8198 38.5077 14.0515 38.5077 14.2533L38.4852 14.2682Z" fill="white"/>
<path d="M33.8905 7.76575C33.9091 7.70726 33.9082 7.64433 33.888 7.5864C33.8677 7.52846 33.8292 7.47863 33.7781 7.44436L33.5758 7.30235C29.7977 4.90748 25.3928 3.68248 20.9172 3.78199C16.434 3.67802 12.0207 4.9032 8.23619 7.30235C7.79486 7.60395 7.36959 7.92828 6.96209 8.274C6.91816 8.31339 6.88723 8.36514 6.87338 8.42242C6.85953 8.4797 6.86341 8.53982 6.88451 8.59486C6.90561 8.64989 6.94294 8.69726 6.99158 8.73071C7.04021 8.76416 7.09787 8.78213 7.15695 8.78225C10.4546 8.60286 16.5028 8.25905 22.596 8.13199C25.3316 8.07967 29.4087 8.03482 33.6282 7.97503C33.6876 7.9693 33.744 7.94646 33.7906 7.9093C33.8372 7.87214 33.8719 7.82226 33.8905 7.76575Z" fill="white"/>
<path d="M20.7152 15.0306V11.7719C20.7152 11.286 20.7152 10.8002 20.7152 10.277C20.7257 10.2506 20.7257 10.2212 20.7152 10.1948C20.7011 10.1886 20.6857 10.1854 20.6703 10.1854C20.6548 10.1854 20.6395 10.1886 20.6253 10.1948H20.2656H19.7334H19.2088H18.8416C18.8205 10.183 18.7963 10.1779 18.7722 10.1801C18.7481 10.1822 18.7253 10.1916 18.7066 10.207C18.688 10.2223 18.6744 10.2429 18.6678 10.2661C18.6611 10.2893 18.6616 10.3139 18.6692 10.3368C18.6692 10.9497 18.6692 11.5925 18.6692 12.2427C18.6692 12.893 18.6692 13.618 18.6692 14.3131C18.6692 15.0082 18.6692 15.7033 18.6692 16.3835C18.6692 17.0636 18.6692 17.6765 18.6692 18.2894C18.6692 18.3191 18.681 18.3476 18.7021 18.3687C18.7232 18.3897 18.7518 18.4015 18.7816 18.4015H19.0664H19.5161H19.9583H20.4155H20.8127H21.3223H22.2442L23.166 18.5585C23.4283 18.5585 23.6906 18.5585 23.9529 18.5585C23.983 18.5569 24.0115 18.5448 24.0335 18.5243C24.0554 18.5037 24.0694 18.4761 24.0729 18.4463C24.0729 18.3417 24.0729 18.2296 24.0729 18.1249V17.6466C24.0729 17.4822 24.0729 17.3252 24.0729 17.1682C24.0729 17.0113 24.0729 16.959 24.0729 16.8469C24.0833 16.8204 24.0833 16.7911 24.0729 16.7646C24.0459 16.7573 24.0174 16.7573 23.9904 16.7646H20.7152V15.0306Z" fill="white"/>
<path d="M62.6707 13.2368H53.8944V16.5629H57.4993C57.1987 17.2707 56.6306 17.8319 55.9179 18.125C55.021 18.4507 54.0514 18.5239 53.1155 18.3367C52.1796 18.1495 51.3133 17.7091 50.6117 17.0636C50.1836 16.6036 49.8724 16.048 49.7041 15.4432C49.5359 14.8385 49.5156 14.2023 49.6449 13.5881C49.8602 12.8085 50.2802 12.1004 50.8616 11.5367C51.4429 10.9731 52.1646 10.5743 52.952 10.3816C53.7395 10.1889 54.5643 10.2092 55.3412 10.4405C56.1182 10.6717 56.8192 11.1055 57.3719 11.6971L57.4544 11.7793H62.3934L62.1011 11.144L61.6964 10.3368C59.4479 7.08553 55.4383 5.85228 50.9714 7.02574C49.5369 7.44431 48.2524 8.26351 47.2697 9.3866C46.287 10.5097 45.647 11.8898 45.4254 13.3639C45.2847 14.4787 45.4088 15.6108 45.7877 16.6689C46.1665 17.727 46.7895 18.6815 47.6063 19.4554C50.5293 22.4451 55.3933 22.3629 58.676 20.9502C60.0032 20.2305 61.0906 19.1396 61.8043 17.8117C62.5181 16.4837 62.827 14.9767 62.6931 13.476L62.6707 13.2368Z" fill="white"/>
<path d="M72.2643 16.092C72.2788 16.4504 72.2026 16.8066 72.0428 17.1279C71.883 17.4492 71.6447 17.7253 71.3499 17.9307C70.5343 18.2555 69.6248 18.2555 68.8092 17.9307C68.51 17.7323 68.2709 17.4562 68.1177 17.1321C67.9644 16.8081 67.9029 16.4484 67.9398 16.092V7.34717H63.8027V16.7049C63.8021 17.5811 64.0323 18.442 64.4703 19.2015C64.9083 19.961 65.5388 20.5924 66.2985 21.0325C67.5426 21.6138 68.9063 21.8956 70.2796 21.8554C71.6529 21.8152 72.9976 21.4539 74.2054 20.8008C74.8335 20.3731 75.3517 19.8037 75.7176 19.1387C76.0835 18.4738 76.287 17.7321 76.3114 16.974V7.34717H72.2643V16.092Z" fill="white"/>
<path d="M77.2178 10.8974H80.2231V21.5482L84.3377 21.5557L84.3302 10.8974H87.3806V7.31726H77.2178V10.8974Z" fill="white"/>
<path d="M97.1537 16.0173L93.3838 7.31726H88.2725V21.5557H92.2671V14.6943L95.1601 21.5557H99.0873L101.973 14.8289V21.5557H106.177V7.31726H100.991L97.1537 16.0173Z" fill="white"/>
<path d="M132.514 15.3595L126.256 7.34717H122.313V21.5482H126.368C126.368 21.5482 126.368 14.8812 126.368 13.7227L132.589 21.5482H136.606V7.34717H132.514C132.514 7.34717 132.521 14.2085 132.514 15.3595Z" fill="white"/>
<path d="M152.008 21.5482V7.34717H147.931C147.931 7.34717 147.931 14.2384 147.931 15.3894L141.673 7.34717H137.73V21.5482H141.785C141.785 21.5482 141.785 14.8812 141.785 13.7227C142.535 14.642 147.983 21.5482 147.983 21.5482H152.008Z" fill="white"/>
<path d="M112.248 7.34717L106.627 21.5482H110.996L111.971 19.2162H116.587L117.502 21.5482H121.864L116.527 7.34717H112.248ZM113.215 15.9724C113.402 15.4119 113.964 13.6704 114.309 12.766C114.714 13.8946 115.058 15.0083 115.381 15.9724H113.215Z" fill="white"/>
</g>
<defs>
<clipPath id="clip0_1070_24043">
<rect width="152" height="29" fill="white"/>
</clipPath>
</defs>
</svg>
