<svg width="24" height="24" viewBox="0 0 24 24" fill="none" xmlns="http://www.w3.org/2000/svg">
<path d="M6.5 19C6.08333 19 5.72933 18.854 5.438 18.562C5.146 18.2707 5 17.9167 5 17.5C5 17.0833 5.146 16.7293 5.438 16.438C5.72933 16.146 6.08333 16 6.5 16H8.375L12.375 6H10.5C10.0833 6 9.72933 5.854 9.438 5.562C9.146 5.27067 9 4.91667 9 4.5C9 4.08333 9.146 3.72933 9.438 3.438C9.72933 3.146 10.0833 3 10.5 3H17.5C17.9167 3 18.2707 3.146 18.562 3.438C18.854 3.72933 19 4.08333 19 4.5C19 4.91667 18.854 5.27067 18.562 5.562C18.2707 5.854 17.9167 6 17.5 6H15.625L11.625 16H13.5C13.9167 16 14.2707 16.146 14.562 16.438C14.854 16.7293 15 17.0833 15 17.5C15 17.9167 14.854 18.2707 14.562 18.562C14.2707 18.854 13.9167 19 13.5 19H6.5Z" fill="#000000" fill-opacity="1"/>
</svg>
