<svg width="24" height="24" viewBox="0 0 24 24" fill="none" xmlns="http://www.w3.org/2000/svg">
<path d="M2.5 20C2.36667 20 2.25 19.95 2.15 19.85C2.05 19.75 2 19.6333 2 19.5C2 19.3667 2.05 19.25 2.15 19.15C2.25 19.05 2.36667 19 2.5 19H4V18.5H3.5C3.36667 18.5 3.25 18.45 3.15 18.35C3.05 18.25 3 18.1333 3 18C3 17.8667 3.05 17.75 3.15 17.65C3.25 17.55 3.36667 17.5 3.5 17.5H4V17H2.5C2.36667 17 2.25 16.95 2.15 16.85C2.05 16.75 2 16.6333 2 16.5C2 16.3667 2.05 16.25 2.15 16.15C2.25 16.05 2.36667 16 2.5 16H4.5C4.63333 16 4.75 16.05 4.85 16.15C4.95 16.25 5 16.3667 5 16.5V19.5C5 19.6333 4.95 19.75 4.85 19.85C4.75 19.95 4.63333 20 4.5 20H2.5ZM3.5 8C3.36667 8 3.25 7.95 3.15 7.85C3.05 7.75 3 7.63333 3 7.5V5H2.5C2.36667 5 2.25 4.95 2.15 4.85C2.05 4.75 2 4.63333 2 4.5C2 4.36667 2.05 4.25 2.15 4.15C2.25 4.05 2.36667 4 2.5 4H3.5C3.63333 4 3.75 4.05 3.85 4.15C3.95 4.25 4 4.36667 4 4.5V7.5C4 7.63333 3.95 7.75 3.85 7.85C3.75 7.95 3.63333 8 3.5 8ZM2.5 14C2.36667 14 2.25 13.95 2.15 13.85C2.05 13.75 2 13.6333 2 13.5V13.275C2 13.2083 2.04167 13.1 2.125 12.95L3.8 11H2.5C2.36667 11 2.25 10.95 2.15 10.85C2.05 10.75 2 10.6333 2 10.5C2 10.3667 2.05 10.25 2.15 10.15C2.25 10.05 2.36667 10 2.5 10H4.5C4.63333 10 4.75 10.05 4.85 10.15C4.95 10.25 5 10.3667 5 10.5V10.725C5 10.7917 4.95833 10.9 4.875 11.05L3.2 13H4.5C4.63333 13 4.75 13.05 4.85 13.15C4.95 13.25 5 13.3667 5 13.5C5 13.6333 4.95 13.75 4.85 13.85C4.75 13.95 4.63333 14 4.5 14H2.5ZM8 19C7.71667 19 7.47933 18.904 7.288 18.712C7.096 18.5207 7 18.2833 7 18C7 17.7167 7.096 17.4793 7.288 17.288C7.47933 17.096 7.71667 17 8 17H19C19.2833 17 19.5207 17.096 19.712 17.288C19.904 17.4793 20 17.7167 20 18C20 18.2833 19.904 18.5207 19.712 18.712C19.5207 18.904 19.2833 19 19 19H8ZM8 13C7.71667 13 7.47933 12.904 7.288 12.712C7.096 12.5207 7 12.2833 7 12C7 11.7167 7.096 11.479 7.288 11.287C7.47933 11.0957 7.71667 11 8 11H19C19.2833 11 19.5207 11.0957 19.712 11.287C19.904 11.479 20 11.7167 20 12C20 12.2833 19.904 12.5207 19.712 12.712C19.5207 12.904 19.2833 13 19 13H8ZM8 7C7.71667 7 7.47933 6.90433 7.288 6.713C7.096 6.521 7 6.28333 7 6C7 5.71667 7.096 5.479 7.288 5.287C7.47933 5.09567 7.71667 5 8 5H19C19.2833 5 19.5207 5.09567 19.712 5.287C19.904 5.479 20 5.71667 20 6C20 6.28333 19.904 6.521 19.712 6.713C19.5207 6.90433 19.2833 7 19 7H8Z" fill="#000000" fill-opacity="1"/>
</svg>
