<svg width="24" height="24" viewBox="0 0 24 24" fill="none" xmlns="http://www.w3.org/2000/svg">
<path d="M11.0249 21C10.7415 21 10.5039 20.904 10.3119 20.712C10.1205 20.5207 10.0249 20.2833 10.0249 20V18.85C9.27486 18.6833 8.61653 18.3917 8.04986 17.975C7.48319 17.5583 7.02486 16.975 6.67486 16.225C6.55819 15.9917 6.55386 15.746 6.66186 15.488C6.77053 15.2293 6.96653 15.0417 7.24986 14.925C7.48319 14.825 7.72486 14.8293 7.97486 14.938C8.22486 15.046 8.41653 15.225 8.54986 15.475C8.83319 15.975 9.19153 16.3543 9.62486 16.613C10.0582 16.871 10.5915 17 11.2249 17C11.9082 17 12.4875 16.846 12.9629 16.538C13.4375 16.2293 13.6749 15.75 13.6749 15.1C13.6749 14.5167 13.4915 14.054 13.1249 13.712C12.7582 13.3707 11.9082 12.9833 10.5749 12.55C9.14153 12.1 8.15819 11.5627 7.62486 10.938C7.09153 10.3127 6.82486 9.55 6.82486 8.65C6.82486 7.56667 7.17486 6.725 7.87486 6.125C8.57486 5.525 9.29153 5.18333 10.0249 5.1V4C10.0249 3.71667 10.1205 3.479 10.3119 3.287C10.5039 3.09567 10.7415 3 11.0249 3C11.3082 3 11.5459 3.09567 11.7379 3.287C11.9292 3.479 12.0249 3.71667 12.0249 4V5.1C12.6582 5.2 13.2082 5.40433 13.6749 5.713C14.1415 6.021 14.5249 6.4 14.8249 6.85C14.9749 7.06667 15.0042 7.30833 14.9129 7.575C14.8209 7.84167 14.6332 8.03333 14.3499 8.15C14.1165 8.25 13.8749 8.254 13.6249 8.162C13.3749 8.07067 13.1415 7.90833 12.9249 7.675C12.7082 7.44167 12.4542 7.26233 12.1629 7.137C11.8709 7.01233 11.5082 6.95 11.0749 6.95C10.3415 6.95 9.78319 7.11267 9.39986 7.438C9.01653 7.76267 8.82486 8.16667 8.82486 8.65C8.82486 9.2 9.07486 9.63333 9.57486 9.95C10.0749 10.2667 10.9415 10.6 12.1749 10.95C13.3249 11.2833 14.1959 11.8123 14.7879 12.537C15.3792 13.2623 15.6749 14.1 15.6749 15.05C15.6749 16.2333 15.3249 17.1333 14.6249 17.75C13.9249 18.3667 13.0582 18.75 12.0249 18.9V20C12.0249 20.2833 11.9292 20.5207 11.7379 20.712C11.5459 20.904 11.3082 21 11.0249 21Z" fill="#000000" fill-opacity="1"/>
</svg>
