<svg width="24" height="24" viewBox="0 0 24 24" fill="none" xmlns="http://www.w3.org/2000/svg">
<path d="M6.0002 19C5.71686 19 5.4792 18.904 5.2872 18.712C5.09586 18.5207 5.0002 18.2833 5.0002 18C5.0002 17.7167 5.09586 17.4793 5.2872 17.288C5.4792 17.096 5.71686 17 6.0002 17H7.0002V10C7.0002 9.45 7.07119 8.90833 7.21319 8.375C7.35453 7.84167 7.56686 7.33333 7.85019 6.85L9.3502 8.35C9.23353 8.61667 9.1462 8.88733 9.0882 9.162C9.02953 9.43733 9.0002 9.71667 9.0002 10V17H15.2002L3.1002 4.9C2.91686 4.71667 2.8252 4.48333 2.8252 4.2C2.8252 3.91667 2.91686 3.68333 3.1002 3.5C3.28353 3.31667 3.51686 3.225 3.8002 3.225C4.08353 3.225 4.31686 3.31667 4.5002 3.5L21.5002 20.5C21.6835 20.6833 21.7795 20.9127 21.7882 21.188C21.7962 21.4627 21.7002 21.7 21.5002 21.9C21.3169 22.0833 21.0835 22.175 20.8002 22.175C20.5169 22.175 20.2835 22.0833 20.1002 21.9L17.1502 19H6.0002ZM19.0002 15.15L17.0002 13.15V10C17.0002 8.9 16.6085 7.95833 15.8252 7.175C15.0419 6.39167 14.1002 6 13.0002 6C12.5502 6 12.1295 6.071 11.7382 6.213C11.3462 6.35433 10.9835 6.55 10.6502 6.8L9.2002 5.35C9.53353 5.1 9.89186 4.87067 10.2752 4.662C10.6585 4.454 11.0669 4.3 11.5002 4.2V3.5C11.5002 3.08333 11.6462 2.72933 11.9382 2.438C12.2295 2.146 12.5835 2 13.0002 2C13.4169 2 13.7709 2.146 14.0622 2.438C14.3542 2.72933 14.5002 3.08333 14.5002 3.5V4.2C15.8002 4.53333 16.8752 5.229 17.7252 6.287C18.5752 7.34567 19.0002 8.58333 19.0002 10V15.15ZM13.0002 22C12.4502 22 11.9795 21.8043 11.5882 21.413C11.1962 21.021 11.0002 20.55 11.0002 20H15.0002C15.0002 20.55 14.8045 21.021 14.4132 21.413C14.0212 21.8043 13.5502 22 13.0002 22Z" fill="#000000" fill-opacity="1"/>
</svg>
