<svg width="24" height="24" viewBox="0 0 24 24" fill="none" xmlns="http://www.w3.org/2000/svg">
<path d="M7 21V7.99999L13 2.04999C13.25 1.79999 13.5457 1.65399 13.887 1.61199C14.229 1.57066 14.5583 1.63332 14.875 1.79999C15.1917 1.96666 15.425 2.19999 15.575 2.49999C15.725 2.79999 15.7583 3.10832 15.675 3.42499L14.55 7.99999H21C21.5333 7.99999 22 8.19999 22.4 8.59999C22.8 8.99999 23 9.46666 23 9.99999V12C23 12.1167 22.9833 12.2417 22.95 12.375C22.9167 12.5083 22.8833 12.6333 22.85 12.75L19.85 19.8C19.7 20.1333 19.45 20.4167 19.1 20.65C18.75 20.8833 18.3833 21 18 21H7ZM9 8.84999V19H18L21 12V9.99999H12L13.35 4.49999L9 8.84999ZM4 21C3.45 21 2.97933 20.8043 2.588 20.413C2.196 20.021 2 19.55 2 19V9.99999C2 9.44999 2.196 8.97899 2.588 8.58699C2.97933 8.19566 3.45 7.99999 4 7.99999H7V9.99999H4V19H7V21H4ZM9 19V8.84999V19Z" fill="#000000" fill-opacity="1"/>
</svg>
