<svg width="24" height="24" viewBox="0 0 24 24" fill="none" xmlns="http://www.w3.org/2000/svg">
<path d="M4 16C3.46667 16 3 15.8 2.6 15.4C2.2 15 2 14.5333 2 14V12C2 11.8833 2.01667 11.7583 2.05 11.625C2.08333 11.4917 2.11667 11.3667 2.15 11.25L5.15 4.2C5.3 3.86667 5.55 3.58333 5.9 3.35C6.25 3.11667 6.61667 3 7 3H18V16L12 21.95C11.75 22.2 11.4543 22.3457 11.113 22.387C10.771 22.429 10.4417 22.3667 10.125 22.2C9.80833 22.0333 9.575 21.8 9.425 21.5C9.275 21.2 9.24167 20.8917 9.325 20.575L10.45 16H4ZM16 15.15V5H7L4 12V14H13L11.65 19.5L16 15.15ZM21 3C21.55 3 22.021 3.19567 22.413 3.587C22.8043 3.979 23 4.45 23 5V14C23 14.55 22.8043 15.0207 22.413 15.412C22.021 15.804 21.55 16 21 16H18V14H21V5H18V3H21ZM16 5V15.15V5Z" fill="#000000" fill-opacity="1"/>
</svg>
