<svg width="24" height="24" viewBox="0 0 24 24" fill="none" xmlns="http://www.w3.org/2000/svg">
<path d="M14 20.725V19.175C15.6167 18.7083 16.9375 17.8125 17.9625 16.4875C18.9875 15.1625 19.5 13.6583 19.5 11.975C19.5 10.2916 18.9917 8.78331 17.975 7.44998C16.9583 6.11664 15.6333 5.22498 14 4.77498V3.22498C16.0667 3.69164 17.75 4.73748 19.05 6.36248C20.35 7.98748 21 9.85831 21 11.975C21 14.0916 20.35 15.9625 19.05 17.5875C17.75 19.2125 16.0667 20.2583 14 20.725ZM3 15V8.99998H7L12 3.99998V20L7 15H3ZM13.5 16.2V7.77498C14.4167 8.05831 15.1458 8.59164 15.6875 9.37498C16.2292 10.1583 16.5 11.0333 16.5 12C16.5 12.95 16.225 13.8166 15.675 14.6C15.125 15.3833 14.4 15.9166 13.5 16.2ZM10.5 7.79998L7.675 10.5H4.5V13.5H7.675L10.5 16.225V7.79998Z" fill="#000000" fill-opacity="1"/>
</svg>
